<svg width="53" height="53" viewBox="0 0 53 53" fill="none" xmlns="http://www.w3.org/2000/svg">
<path fill-rule="evenodd" clip-rule="evenodd" d="M11.8115 31.2053L1.26391 36.621C-0.12686 37.3351 -0.0998493 39.3324 1.30973 40.0086L25.9476 51.8282C26.4907 52.0887 27.1255 52.0749 27.6568 51.7911L51.0892 39.2727C52.4368 38.5528 52.4187 36.6149 51.0581 35.9202L48.3156 34.5199L39.398 38.9596L26.5797 45.8076L10.6843 38.182L16.3615 35.267L11.8115 31.2053Z" fill="white"/>
<path fill-rule="evenodd" clip-rule="evenodd" d="M11.8115 19.2698L1.26391 24.6855C-0.12686 25.3996 -0.0998493 27.3969 1.30973 28.0731L25.9476 39.8927C26.4907 40.1532 27.1255 40.1394 27.6568 39.8556L51.0892 27.3372C52.4368 26.6173 52.4187 24.6794 51.0581 23.9847L48.3156 22.5844L39.398 27.0241L26.5797 33.8721L10.6843 26.2465L16.3615 23.3315L11.8115 19.2698Z" fill="white"/>
<path fill-rule="evenodd" clip-rule="evenodd" d="M48.3155 10.7643L39.3979 15.204L26.5797 22.0519L10.6842 14.4264L26.616 6.24618L32.2882 9.14225L38.7944 5.90312L27.6377 0.206842C27.0961 -0.0696384 26.4547 -0.0689088 25.9138 0.208809L1.26385 12.8654C-0.126921 13.5794 -0.0999103 15.5767 1.30967 16.2529L25.9476 28.0725C26.4907 28.3331 27.1254 28.3193 27.6567 28.0355L51.0892 15.517C52.4367 14.7971 52.4187 12.8592 51.058 12.1645L48.3155 10.7643Z" fill="white"/>
</svg>
