<svg width="100" height="100" viewBox="0 0 100 100" fill="none" xmlns="http://www.w3.org/2000/svg">
<circle cx="50" cy="50" r="50" fill="#2E384C"/>
<path d="M30.1254 60.6132C28.9949 60.0708 28.9732 58.4689 30.0887 57.8961L37.0122 54.3413L42.1764 56.8212L37.6445 59.1481L50.3937 65.2644L60.6748 59.7718L67.8274 56.2109L70.027 57.334C71.1184 57.8912 71.1328 59.4455 70.052 60.0229L51.2576 70.0636C50.8315 70.2913 50.3223 70.3023 49.8867 70.0933L30.1254 60.6132Z" fill="#FAFAFA"/>
<path d="M30.1254 51.04C28.9949 50.4977 28.9732 48.8957 30.0887 48.3229L36.8876 44.8321L42.0394 47.3042L37.6445 49.575L50.3937 55.6912L60.6748 50.1987L67.8274 46.6378L70.027 47.7608C71.1184 48.318 71.1328 49.8724 70.052 50.4498L51.2576 60.4904C50.8315 60.7181 50.3223 60.7291 49.8867 60.5201L30.1254 51.04Z" fill="#FAFAFA"/>
<path fill-rule="evenodd" clip-rule="evenodd" d="M67.7663 37.1572L60.6138 40.7181L50.3327 46.2107L37.5834 40.0944L50.3618 33.5334L54.9113 35.8562L60.1297 33.2582L51.1813 28.6894C50.7469 28.4677 50.2325 28.4682 49.7986 28.691L30.0277 38.8424C28.9122 39.4152 28.9338 41.0171 30.0644 41.5595L49.8257 51.0396C50.2613 51.2486 50.7704 51.2376 51.1966 51.0099L69.991 40.9692C71.0718 40.3918 71.0573 38.8375 69.966 38.2803L67.7663 37.1572Z" fill="#FAFAFA"/>
</svg>
